PathFileType	4	(X/Y/Z)	66_1_5_p0_0-221.trc
DataRate	CameraRate	NumFrames	NumMarkers	Units	OrigDataRate	OrigDataStartFrame	OrigNumFrames
48.0	48.0	5	27	m	48.0	83	222
Frame#	Time	RHip			RKnee			RAnkle			RBigToe			RSmallToe			RHeel			LHip			LKnee			LAnkle			LBigToe			LSmallToe			LHeel			Neck			Head			Nose			RShoulder			RElbow			RWrist			RThumb			RIndex			RPinky			LShoulder			LElbow			LWrist			LThumb			LIndex			LPinky			
		X1	Y1	Z1	X2	Y2	Z2	X3	Y3	Z3	X4	Y4	Z4	X5	Y5	Z5	X6	Y6	Z6	X7	Y7	Z7	X8	Y8	Z8	X9	Y9	Z9	X10	Y10	Z10	X11	Y11	Z11	X12	Y12	Z12	X13	Y13	Z13	X14	Y14	Z14	X15	Y15	Z15	X16	Y16	Z16	X17	Y17	Z17	X18	Y18	Z18	X19	Y19	Z19	X20	Y20	Z20	X21	Y21	Z21	X22	Y22	Z22	X23	Y23	Z23	X24	Y24	Z24	X25	Y25	Z25	X26	Y26	Z26	X27	Y27	Z27	
83	1.7291666666666667	0.4892659300660787	1.081978158214122	0.919964546568374	0.5058307288992356	0.9413836236600466	1.2098676163452133	0.5209739711939879	1.0597445008565451	1.6118291577273387	0.4998241918400953	0.9013705506648036	1.6564138100700614	0.5635860409937218	0.9262074153763384	1.6526532081627954	0.5018834716154664	1.1753483566858867	1.6725396693267707	0.28919028795856466	1.059937855119195	0.895628515489671	0.3135471338733875	0.9441642539203577	1.2175981399440101	0.32825842384555365	1.136865939472136	1.6288443968677824	0.33706389802603437	0.903068382071877	1.639092307379347	0.296228822073564	0.9394520652117494	1.6242779920983135	0.34795129439200545	1.1739891038103332	1.6765858426600453	0.5101241478501113	0.7062185184203085	0.5889623321887271	0.5671721003542523	0.47913981221637597	0.37697973738233964	0.5580468743570435	0.5216622979361735	0.537445657652314	0.6430880713952639	0.7325145022237951	0.6029809461148932	0.6902963430213543	0.8082944945994543	0.8613824045882567	0.6933323537150015	0.60251652353021	0.9722957645477093	0.6772709609145271	0.4323695817758371	0.998756038086562	0.6832714240647968	0.4454452239204631	1.0053847039069475	0.7093994770058484	0.5349400666871673	1.026453455693749	0.3699684882042575	0.7323006907809377	0.5664201385701071	0.13532284921489557	0.8116741499523914	0.6006309548147432	0.2294127396266659	0.9121520147793616	0.6792241067187034	0.330415715297493	0.9474601211619879	0.705499377384357	0.34628866143339665	1.0171894599958717	0.7064448167513789	0.31302659059479593	1.073563519952229	0.7557787136736557
84	1.75	0.4882497092549205	1.0790846583516012	0.9160714628532135	0.5071038686455972	0.9425332247588682	1.2094201476955646	0.5162605631724586	1.074083102093678	1.6126550113357547	0.496682987909144	0.9162352564566617	1.6578563439883678	0.5609860432886512	0.9384693687432328	1.6529237530645042	0.5003148357572653	1.172593078674949	1.6626352230576615	0.2890739980572154	1.0601284701129723	0.895671709061407	0.31680412782327605	0.9591198494788378	1.2169184818623509	0.32337516872465316	1.1369755947454994	1.624317120607882	0.3366680804894298	0.9040019462560132	1.6392959154644902	0.2959923862421635	0.940272687009087	1.6248563137207295	0.33694221888790676	1.1932816167422369	1.679492627181238	0.5134102085052031	0.6935514493526832	0.5878041862728952	0.5672312560030172	0.47922112965925645	0.37695947582619704	0.5507042287100534	0.5029209263817805	0.5362795961403906	0.6389485348075369	0.7202340600373471	0.6022703069622485	0.6903204829231435	0.8080669928404014	0.8614394152873365	0.6990814397128732	0.6028594567641833	0.973119405742689	0.6837654169051902	0.4323750027999367	0.9989623591464261	0.6939011350063099	0.4460539433302042	1.0061181302027526	0.7118614356442546	0.5227651890676798	1.0231370860026483	0.3746201091983386	0.7332945862047089	0.5666992283988924	0.1396908606700377	0.7992661883284304	0.6029395173747358	0.22506918913522875	0.8943428523961994	0.675741038359525	0.3209619868156495	0.9225609869884498	0.7001013076550657	0.31496753703530855	0.9325377747716035	0.6919878862285084	0.2702989329421524	0.8987654359888744	0.7046125243907139
85	1.7708333333333333	0.4891790011831572	1.0808901875006736	0.9241358321874434	0.5069174363698977	0.9422530546438118	1.2094299949466902	0.5197060725653976	1.0566723237030688	1.6064679022745194	0.49963018167815176	0.8985143335632153	1.6509461983775175	0.5634509865240358	0.9225765652612603	1.6468071225835021	0.500155911205925	1.1731267240854428	1.6629339919572157	0.2890485560342566	1.0603322811048481	0.8958059229050326	0.3132960312556912	0.9451384904537146	1.2135294794440468	0.3233483095499185	1.136972521211794	1.6242746578948082	0.33651123071455424	0.9043322328910782	1.6394012820602315	0.29581025726846316	0.9403233449939491	1.6249479169185923	0.336925823616114	1.1929922732491998	1.6792824347200623	0.5133645995358032	0.693469337305656	0.587664070160352	0.567246928551762	0.47939530738822633	0.3770060388410806	0.551007170013312	0.5025027124245279	0.5326790622360279	0.6387200737763201	0.7196746000843302	0.6020178149571557	0.6902981961808182	0.80798894460114	0.8614122462400049	0.7003709613527996	0.5883673043497205	0.9699188326945329	0.6873972896934373	0.4312925518445874	0.9989471090607804	0.6949606791758034	0.4455834342279266	1.006242843945322	0.711812631796279	0.5234970887241175	1.0197580720256803	0.3742882967783323	0.7334083332463831	0.5739592506919586	0.14020351762404176	0.7984174072971771	0.5998037747047542	0.22926209132749972	0.8987573469079213	0.6763968030198108	0.3207896152035432	0.922463807970926	0.6998103587247287	0.3187996660977823	0.9469894493876391	0.6973129484353345	0.3128779922904757	1.0731950290427654	0.7568874541863219
86	1.7916666666666667	0.48927321972679394	1.0813404059794853	0.9242924976675457	0.5019298783273041	0.9268088806599317	1.2017780274609076	0.5197350560453684	1.056801028033099	1.606610234741588	0.4997077598896788	0.8987226151250707	1.6470511780380206	0.5653849851174227	0.9242518887186084	1.6431605938226723	0.5003200309269886	1.171319783997446	1.6665856654434652	0.2893057233158542	1.0596956726538702	0.9000137094005555	0.3124111022494725	0.9428486587487563	1.2090367141216307	0.3234777483950581	1.1368804713664193	1.624317201700106	0.3368403021338165	0.9042281953148399	1.6394374012393516	0.29597179563324305	0.9404106308456796	1.6250512196671338	0.33586671393452006	1.1956749557456572	1.6853931559591127	0.513396604156854	0.6934263269806631	0.5877072572334432	0.5676914017094683	0.4809919085962104	0.38000022653715093	0.5589334903491943	0.5139571067902874	0.533095878515125	0.6388029289236555	0.7199400582289857	0.6022079888542609	0.6897445519156996	0.808967502674747	0.8655675562073561	0.7002762841851278	0.5883980917868394	0.969709465697634	0.6881242147247036	0.43134095412938306	0.9992196935268143	0.698454896623545	0.4458774631671823	1.0064081796185562	0.711836894973415	0.5235889811560669	1.019628508375958	0.37497807669404165	0.7356557051909884	0.5782953033156645	0.1398082685916634	0.7989717090576954	0.603053051372016	0.2326082829012768	0.9132253282308573	0.6807585979565363	0.32461394433339036	0.9263586676598005	0.6989268751339333	0.3208273167727358	0.9381941424138543	0.6925394935701678	0.31509630509340414	1.0453684899825204	0.7548986687147615
87	1.8125	0.4892927205104453	1.0813458088949894	0.9244458486975335	0.5004285200438107	0.9266313721545926	1.2030995475491453	0.5151457498319508	1.0419266132834526	1.6013824268283965	0.5000996361973754	0.8997185314599476	1.6476318587814487	0.5646181964549057	0.9276382742049775	1.6489447668584636	0.49540248189022273	1.1576881101884087	1.6575917221238494	0.28999231625327765	1.0621869155979289	0.9051633478140894	0.31334012915365755	0.9450992934959493	1.213492902950612	0.3233445873005738	1.1367124229744545	1.624243614014883	0.3367880101072242	0.9030819389694421	1.6389716624322441	0.30069510805090627	0.9243444080207702	1.6188233644336467	0.3352950726515856	1.1943293789211074	1.6846077021226125	0.5134026358579129	0.6934408366884642	0.587567931595287	0.5672617935474114	0.479913872343612	0.377020010280776	0.555051763751139	0.5128562316492646	0.5329700082921273	0.6461366532522828	0.7206049413630583	0.6057646377872445	0.6902701457709786	0.808045783708916	0.8614151967243243	0.7005000988570296	0.5879368368405842	0.9624191870203217	0.688563551164904	0.42973681650369955	0.9953060817044898	0.6957077182438481	0.44403503468691785	1.0023240157533482	0.715227262782085	0.5235001393827771	1.019354714536504	0.37446365425592365	0.733251549676353	0.5740145886596929	0.13977826420073544	0.7988542482242336	0.6029711267779928	0.23764596635617485	0.8979690220954128	0.679911771717367	0.3210844557937226	0.9240377134455037	0.7023032156277584	0.3228021509973236	0.9338858353141559	0.7028030605207208	0.28083528416962544	0.9011971315568269	0.7066617756464872
